<?xml version="1.0" encoding="UTF-8"?>
<svg id="Lager_1" data-name="Lager 1" xmlns="http://www.w3.org/2000/svg" viewBox="0 0 449.14 159.47">
  <defs>
    <style>
      .cls-1 {
        fill: #000000;
      }
    </style>
  </defs>
  <path class="cls-1" d="M0,52.01C0,13.76,20.2,0,49,0s49,13.76,49,52.01v55.45c0,38.25-20.2,52.01-49,52.01S0,145.71,0,107.46v-55.45ZM29.66,111.33c0,17.19,7.52,21.92,19.34,21.92s19.34-4.73,19.34-21.92v-63.19c0-17.19-7.52-21.92-19.34-21.92s-19.34,4.73-19.34,21.92v63.19Z"/>
  <path class="cls-1" d="M187.61,45.35c-4.94-14.61-11.39-20.85-21.71-20.85s-16.33,6.45-16.33,16.98c0,23.43,66.19,25.15,66.19,73.72,0,26.65-18.27,44.27-49.43,44.27-24.07,0-42.77-13.11-50.72-43.63l29.23-6.23c3.44,18.7,14.19,25.36,23,25.36,10.31,0,18.27-6.88,18.27-18.48,0-29.23-66.2-29.66-66.2-73.07C119.91,16.76,135.81,0,166.54,0,192.98,0,209.1,15.69,214.26,37.61l-26.65,7.74Z"/>
  <polygon class="cls-1" points="327.56 2.15 327.56 28.37 292.96 28.37 292.96 157.32 263.3 157.32 263.3 28.37 228.7 28.37 228.7 2.15 327.56 2.15"/>
  <path class="cls-1" d="M352,157.32V2.15h42.77c36.54,0,54.37,17.19,54.37,46.42s-17.84,46.42-54.37,46.42h-13.11v62.32h-29.66ZM381.66,70.49h15.9c14.61,0,21.92-7.31,21.92-21.92s-7.31-21.92-21.92-21.92h-15.9v43.84Z"/>
</svg>